<?xml version="1.0" encoding="UTF-8"?>
<svg id="Layer_2" data-name="Layer 2" xmlns="http://www.w3.org/2000/svg" viewBox="0 0 760.36 549.12">
  <defs>
    <style>
      .cls-1 {
        fill: #bdbdbd;
      }

      .cls-2 {
        fill: #042533;
      }
    </style>
  </defs>
  <g id="Layer_1-2" data-name="Layer 1">
    <g>
      <g>
        <g>
          <path class="cls-1" d="M401.42,476.49c-18.42,0-32.94-14.16-32.94-32.39s14.53-32.39,32.94-32.39c15.27,0,28.23,9.07,31.19,23.78l-14.99,3.52c-1.94-8.98-8.24-13.33-16.2-13.33-9.81,0-17.68,7.87-17.68,18.42s7.87,18.51,17.68,18.51c7.87,0,14.16-4.44,16.29-13.7l14.99,2.96c-2.87,15.55-15.36,24.62-31.28,24.62Z"/>
          <path class="cls-1" d="M459.99,476.49c-16.84,0-28.13-11.57-28.13-29.34v-34.06h15.27v34.06c0,9.44,5.09,15.27,12.87,15.27,7.31,0,12.22-5.83,12.22-15.27v-34.06h15.27v34.06c0,17.77-11.01,29.34-27.48,29.34Z"/>
          <path class="cls-1" d="M538.74,429.66l-14.99,3.05c-1.11-5.83-5.92-8.7-10.83-8.7s-8.33,2.78-8.33,6.29c0,2.5,1.11,4.35,5,5.18l12.87,2.87c10.73,2.41,17.03,8.24,17.03,18.05,0,13.23-11.75,20.08-25.54,20.08s-25.45-6.66-27.11-18.79l15.73-3.05c1.57,6.39,6.02,9.16,12.22,9.16,5.74,0,9.16-2.59,9.16-6.39,0-2.78-1.3-4.54-5.74-5.46l-12.96-2.78c-8.89-2.04-16.66-6.66-16.66-17.95,0-12.03,10-19.53,24.52-19.53,13.51,0,23.32,6.66,25.63,17.95Z"/>
          <path class="cls-1" d="M569.55,475.1h-15.18v-48.68h-20.08v-13.33h55.34v13.33h-20.08v48.68Z"/>
          <path class="cls-1" d="M649.04,444.19c0,18.05-14.53,32.3-33.04,32.3s-33.04-14.25-33.04-32.3,14.53-32.48,33.04-32.48,33.04,14.34,33.04,32.48ZM633.77,444.19c0-10.64-7.68-18.51-17.77-18.51s-17.77,7.87-17.77,18.51,7.68,18.32,17.77,18.32,17.77-7.77,17.77-18.32Z"/>
          <path class="cls-1" d="M706.87,444.1c0,18.42-13.51,31-33.96,31h-24.52v-62h24.52c20.45,0,33.96,12.59,33.96,31ZM691.51,444.1c0-10.74-7.59-17.77-19.16-17.77h-8.7v35.54h8.7c11.57,0,19.16-7.03,19.16-17.77Z"/>
          <path class="cls-1" d="M720.29,475.1v-19.25l-23.97-42.76h16.66l15.27,27.21,15.09-27.21h17.03l-24.52,42.57v19.43h-15.55Z"/>
        </g>
        <g>
          <g>
            <path class="cls-2" d="M46.68,438.99v13.33h-29.06v22.21H2.35v-62h47.94v13.42H17.62v13.05h29.06Z"/>
            <path class="cls-2" d="M112.38,443.61c0,18.05-14.53,32.3-33.04,32.3s-33.04-14.25-33.04-32.3,14.53-32.48,33.04-32.48,33.04,14.35,33.04,32.48ZM97.11,443.61c0-10.64-7.68-18.51-17.77-18.51s-17.77,7.87-17.77,18.51,7.68,18.32,17.77,18.32,17.77-7.78,17.77-18.32Z"/>
            <path class="cls-2" d="M131.43,453.24h-4.44v21.29h-15.27v-62h31.37c13.42,0,22.3,8.14,22.3,20.27,0,10.18-6.29,17.49-16.29,19.71l19.43,22.03h-18.42l-18.69-21.29ZM150.4,432.97c0-4.44-3.52-7.4-8.98-7.4h-14.44v14.9h14.44c5.46,0,8.98-2.96,8.98-7.5Z"/>
            <path class="cls-2" d="M194.54,474.52h-15.18v-48.68h-20.08v-13.33h55.34v13.33h-20.08v48.68Z"/>
            <path class="cls-2" d="M240.53,475.91c-16.84,0-28.13-11.57-28.13-29.33v-34.06h15.27v34.06c0,9.44,5.09,15.27,12.87,15.27,7.31,0,12.22-5.83,12.22-15.27v-34.06h15.27v34.06c0,17.77-11.01,29.33-27.48,29.33Z"/>
            <path class="cls-2" d="M315.95,474.52l-31.37-35.91v35.91h-15.27v-62h12.68l31.37,37.02v-37.02h15.18v62h-12.59Z"/>
            <path class="cls-2" d="M371.19,463.23h-26.1l-4.35,11.29h-16.38l25.91-62h15.64l25.91,62h-16.29l-4.35-11.29ZM350.27,450.09h15.83l-7.96-20.36-7.87,20.36Z"/>
          </g>
          <g>
            <path class="cls-2" d="M21.88,538.33h-2.11v-4.62c-.92,1.61-2.18,2.86-3.78,3.75-1.6.89-3.37,1.34-5.33,1.34-2.96,0-5.48-1.02-7.55-3.06-2.07-2.04-3.11-4.7-3.11-7.99s1.04-5.9,3.11-7.96c2.07-2.06,4.59-3.09,7.55-3.09,1.96,0,3.73.46,5.33,1.36,1.6.91,2.86,2.17,3.78,3.78v-16.75h2.11v33.23ZM17.14,534.36c1.76-1.7,2.63-3.9,2.63-6.6s-.89-4.91-2.65-6.6c-1.77-1.7-3.83-2.55-6.19-2.55s-4.57.84-6.28,2.52c-1.71,1.68-2.57,3.89-2.57,6.62s.85,4.98,2.55,6.65,3.8,2.5,6.3,2.5,4.46-.85,6.22-2.55Z"/>
            <path class="cls-2" d="M37.97,509.62c.32.32.48.71.48,1.17s-.16.84-.48,1.14-.71.45-1.17.45c-.49,0-.89-.15-1.21-.45s-.47-.68-.47-1.14.16-.85.47-1.17c.32-.31.72-.47,1.21-.47.46,0,.85.16,1.17.47ZM35.77,538.33v-21.1h2.07v21.1h-2.07Z"/>
            <path class="cls-2" d="M71.59,539.41c-.03,2.82-1.08,5.14-3.15,6.97-2.07,1.83-4.6,2.74-7.6,2.74-5.26,0-8.73-1.97-10.4-5.91l1.86-1.25c1.47,3.42,4.32,5.14,8.55,5.14,2.39,0,4.42-.74,6.09-2.22,1.67-1.48,2.52-3.38,2.55-5.68v-5.48c-.92,1.61-2.18,2.86-3.78,3.75-1.6.89-3.37,1.34-5.33,1.34-2.96,0-5.48-1.02-7.55-3.06s-3.11-4.7-3.11-7.99,1.04-5.9,3.11-7.96c2.07-2.06,4.59-3.09,7.55-3.09,1.96,0,3.73.46,5.33,1.36,1.6.91,2.86,2.17,3.78,3.78v-4.62h2.11v22.18ZM66.85,534.36c1.76-1.7,2.63-3.9,2.63-6.6s-.89-4.91-2.65-6.6c-1.77-1.7-3.83-2.55-6.19-2.55s-4.57.84-6.28,2.52-2.57,3.89-2.57,6.62.85,4.98,2.55,6.65,3.8,2.5,6.3,2.5,4.46-.85,6.22-2.55Z"/>
            <path class="cls-2" d="M87.68,509.62c.32.32.48.71.48,1.17s-.16.84-.48,1.14-.71.45-1.17.45c-.49,0-.89-.15-1.21-.45s-.47-.68-.47-1.14.16-.85.47-1.17c.32-.31.72-.47,1.21-.47.46,0,.85.16,1.17.47ZM85.48,538.33v-21.1h2.07v21.1h-2.07Z"/>
            <path class="cls-2" d="M112.84,537.12c-1.47,1.12-3.01,1.68-4.62,1.68-1.9,0-3.42-.57-4.58-1.7s-1.73-2.71-1.73-4.72v-13.34h-4.62v-1.81h4.62v-7.81h2.11v7.81h7.9v1.81h-7.9v13.21c0,1.41.4,2.53,1.19,3.35.79.82,1.84,1.23,3.13,1.23s2.55-.48,3.67-1.42l.82,1.73Z"/>
            <path class="cls-2" d="M137.13,518.82c1.53,1.41,2.29,3.36,2.29,5.87v13.64h-2.03v-4.14c-.83,1.41-2.02,2.53-3.54,3.37-1.52.83-3.25,1.25-5.18,1.25-2.27,0-4.09-.57-5.46-1.73s-2.05-2.63-2.05-4.44c0-1.96.74-3.54,2.22-4.75,1.48-1.21,3.6-1.81,6.37-1.81l7.64.04v-1.34c0-1.93-.58-3.44-1.73-4.53s-2.69-1.64-4.62-1.64c-1.78,0-3.28.44-4.49,1.32s-1.94,2.05-2.2,3.52l-1.99-.52c.32-1.84,1.27-3.34,2.85-4.49s3.5-1.73,5.74-1.73c2.59,0,4.65.71,6.17,2.12ZM134.91,534.83c1.65-1.47,2.48-3.28,2.48-5.44v-1.55h-7.68c-2.1,0-3.71.44-4.83,1.31-1.12.88-1.68,2.02-1.68,3.43,0,1.3.52,2.36,1.57,3.19,1.05.83,2.42,1.25,4.12,1.25,2.36,0,4.37-.73,6.02-2.2Z"/>
            <path class="cls-2" d="M153.57,533.62c0,.95.31,1.72.93,2.31.62.59,1.42.89,2.39.89.83,0,1.65-.25,2.46-.73l.56,1.77c-1.01.63-2.13.95-3.37.95-1.53,0-2.76-.46-3.69-1.4-.93-.93-1.4-2.16-1.4-3.69v-28.62h2.11v28.53Z"/>
            <path class="cls-2" d="M200.3,518.82c1.53,1.41,2.29,3.36,2.29,5.87v13.64h-2.03v-4.14c-.83,1.41-2.02,2.53-3.54,3.37-1.52.83-3.25,1.25-5.18,1.25-2.27,0-4.09-.57-5.46-1.73s-2.05-2.63-2.05-4.44c0-1.96.74-3.54,2.22-4.75,1.48-1.21,3.61-1.81,6.37-1.81l7.64.04v-1.34c0-1.93-.58-3.44-1.73-4.53s-2.69-1.64-4.62-1.64c-1.78,0-3.28.44-4.49,1.32s-1.94,2.05-2.2,3.52l-1.99-.52c.32-1.84,1.27-3.34,2.85-4.49s3.5-1.73,5.74-1.73c2.59,0,4.65.71,6.17,2.12ZM198.08,534.83c1.65-1.47,2.48-3.28,2.48-5.44v-1.55h-7.68c-2.1,0-3.71.44-4.83,1.31-1.12.88-1.68,2.02-1.68,3.43,0,1.3.52,2.36,1.57,3.19,1.05.83,2.42,1.25,4.12,1.25,2.36,0,4.37-.73,6.02-2.2Z"/>
            <path class="cls-2" d="M215.32,532.03c.14,1.55.88,2.78,2.2,3.67,1.32.89,2.98,1.34,4.96,1.34,1.78,0,3.22-.38,4.32-1.14,1.09-.76,1.64-1.82,1.64-3.17,0-1.04-.34-1.84-1.03-2.4-.69-.56-1.68-.99-2.98-1.27l-5.18-1.12c-3.48-.75-5.22-2.46-5.22-5.14,0-1.81.71-3.28,2.14-4.4,1.42-1.12,3.29-1.68,5.59-1.68s4.09.53,5.52,1.58c1.44,1.05,2.36,2.42,2.76,4.12l-1.94.52c-.29-1.35-.99-2.43-2.11-3.24-1.12-.81-2.55-1.21-4.27-1.21s-3.05.38-4.06,1.14-1.51,1.78-1.51,3.04c0,1.03.33,1.81.99,2.33.66.52,1.63.92,2.89,1.21l5.09,1.12c3.59.83,5.39,2.59,5.39,5.27,0,1.93-.75,3.45-2.24,4.55-1.5,1.11-3.47,1.66-5.91,1.66s-4.58-.55-6.22-1.66c-1.64-1.11-2.61-2.64-2.89-4.6l2.07-.52Z"/>
            <path class="cls-2" d="M241.9,532.03c.14,1.55.88,2.78,2.2,3.67,1.32.89,2.98,1.34,4.96,1.34,1.78,0,3.22-.38,4.32-1.14,1.09-.76,1.64-1.82,1.64-3.17,0-1.04-.34-1.84-1.03-2.4-.69-.56-1.68-.99-2.98-1.27l-5.18-1.12c-3.48-.75-5.22-2.46-5.22-5.14,0-1.81.71-3.28,2.14-4.4,1.42-1.12,3.29-1.68,5.59-1.68s4.09.53,5.52,1.58c1.44,1.05,2.36,2.42,2.76,4.12l-1.94.52c-.29-1.35-.99-2.43-2.11-3.24-1.12-.81-2.55-1.21-4.27-1.21s-3.05.38-4.06,1.14-1.51,1.78-1.51,3.04c0,1.03.33,1.81.99,2.33.66.52,1.63.92,2.89,1.21l5.09,1.12c3.59.83,5.39,2.59,5.39,5.27,0,1.93-.75,3.45-2.24,4.55-1.5,1.11-3.47,1.66-5.91,1.66s-4.58-.55-6.22-1.66c-1.64-1.11-2.61-2.64-2.89-4.6l2.07-.52Z"/>
            <path class="cls-2" d="M287.86,527.97h-19.12c.03,2.7.91,4.88,2.63,6.52,1.73,1.64,3.71,2.46,5.96,2.46,4.03,0,6.76-1.8,8.2-5.4l1.86.43c-.8,2.21-2.07,3.9-3.8,5.07-1.73,1.17-3.81,1.75-6.26,1.75-2.85,0-5.34-1.01-7.47-3.02-2.13-2.01-3.19-4.66-3.19-7.94s1.08-5.99,3.24-8.05c2.16-2.06,4.72-3.09,7.68-3.09s5.32.97,7.23,2.92c1.91,1.94,2.93,4.47,3.04,7.57v.78ZM271.82,520.72c-1.71,1.41-2.71,3.28-3,5.61h16.92c-.26-2.42-1.14-4.31-2.63-5.68-1.5-1.37-3.34-2.05-5.52-2.05s-4.05.7-5.76,2.11Z"/>
            <path class="cls-2" d="M310.64,537.12c-1.47,1.12-3.01,1.68-4.62,1.68-1.9,0-3.42-.57-4.58-1.7s-1.73-2.71-1.73-4.72v-13.34h-4.62v-1.81h4.62v-7.81h2.11v7.81h7.9v1.81h-7.9v13.21c0,1.41.4,2.53,1.19,3.35.79.82,1.84,1.23,3.13,1.23s2.55-.48,3.67-1.42l.82,1.73Z"/>
            <path class="cls-2" d="M350.36,535.5c1.42-.91,2.42-2.14,3-3.69l1.94.56c-.63,1.93-1.84,3.48-3.63,4.66-1.79,1.18-3.81,1.77-6.09,1.77-3.02,0-5.59-1.02-7.7-3.06s-3.17-4.7-3.17-7.99,1.06-5.87,3.19-7.94c2.13-2.07,4.69-3.11,7.68-3.11,2.24,0,4.26.61,6.04,1.82,1.78,1.21,3.02,2.82,3.71,4.83l-1.99.65c-.55-1.67-1.53-2.97-2.96-3.9-1.42-.94-3.03-1.4-4.81-1.4-2.45,0-4.52.85-6.24,2.55-1.71,1.7-2.57,3.87-2.57,6.52s.85,4.94,2.55,6.6,3.78,2.5,6.26,2.5c1.76,0,3.35-.45,4.77-1.36Z"/>
            <path class="cls-2" d="M385.59,538.33h-2.11v-4.49c-.83,1.58-1.99,2.81-3.47,3.69s-3.2,1.32-5.16,1.32c-2.56,0-4.62-.83-6.17-2.5-1.55-1.67-2.33-3.87-2.33-6.6v-12.52h2.07v12.21c0,2.22.61,4.01,1.84,5.37s2.84,2.05,4.86,2.05c2.53,0,4.56-.81,6.09-2.44s2.29-3.83,2.29-6.62v-10.57h2.11v21.1Z"/>
            <path class="cls-2" d="M398.92,532.03c.14,1.55.88,2.78,2.2,3.67,1.32.89,2.98,1.34,4.96,1.34,1.78,0,3.22-.38,4.32-1.14,1.09-.76,1.64-1.82,1.64-3.17,0-1.04-.34-1.84-1.03-2.4-.69-.56-1.68-.99-2.98-1.27l-5.18-1.12c-3.48-.75-5.22-2.46-5.22-5.14,0-1.81.71-3.28,2.14-4.4,1.42-1.12,3.29-1.68,5.59-1.68s4.09.53,5.52,1.58c1.44,1.05,2.36,2.42,2.76,4.12l-1.94.52c-.29-1.35-.99-2.43-2.11-3.24-1.12-.81-2.55-1.21-4.27-1.21s-3.05.38-4.06,1.14-1.51,1.78-1.51,3.04c0,1.03.33,1.81.99,2.33.66.52,1.63.92,2.89,1.21l5.09,1.12c3.59.83,5.39,2.59,5.39,5.27,0,1.93-.75,3.45-2.24,4.55-1.5,1.11-3.47,1.66-5.91,1.66s-4.58-.55-6.22-1.66c-1.64-1.11-2.61-2.64-2.89-4.6l2.07-.52Z"/>
            <path class="cls-2" d="M437.11,537.12c-1.47,1.12-3.01,1.68-4.62,1.68-1.9,0-3.42-.57-4.58-1.7s-1.73-2.71-1.73-4.72v-13.34h-4.62v-1.81h4.62v-7.81h2.11v7.81h7.9v1.81h-7.9v13.21c0,1.41.4,2.53,1.19,3.35.79.82,1.84,1.23,3.13,1.23s2.55-.48,3.67-1.42l.82,1.73Z"/>
            <path class="cls-2" d="M463.18,519.88c2.13,2.08,3.19,4.71,3.19,7.87s-1.06,5.8-3.19,7.9c-2.13,2.1-4.76,3.15-7.9,3.15s-5.77-1.05-7.9-3.15c-2.13-2.1-3.19-4.73-3.19-7.9s1.06-5.79,3.19-7.87c2.13-2.09,4.76-3.13,7.9-3.13s5.77,1.04,7.9,3.13ZM461.69,534.29c1.74-1.74,2.61-3.92,2.61-6.54s-.86-4.83-2.59-6.56c-1.73-1.73-3.87-2.59-6.43-2.59s-4.71.86-6.43,2.59c-1.73,1.73-2.59,3.91-2.59,6.56s.87,4.8,2.61,6.54c1.74,1.74,3.88,2.61,6.41,2.61s4.67-.87,6.41-2.61Z"/>
            <path class="cls-2" d="M497.66,538.33h-2.11v-4.62c-.92,1.61-2.18,2.86-3.78,3.75-1.6.89-3.37,1.34-5.33,1.34-2.96,0-5.48-1.02-7.55-3.06-2.07-2.04-3.11-4.7-3.11-7.99s1.04-5.9,3.11-7.96c2.07-2.06,4.59-3.09,7.55-3.09,1.96,0,3.73.46,5.33,1.36,1.6.91,2.86,2.17,3.78,3.78v-16.75h2.11v33.23ZM492.91,534.36c1.76-1.7,2.63-3.9,2.63-6.6s-.89-4.91-2.65-6.6c-1.77-1.7-3.83-2.55-6.19-2.55s-4.57.84-6.28,2.52c-1.71,1.68-2.57,3.89-2.57,6.62s.85,4.98,2.55,6.65,3.8,2.5,6.3,2.5,4.46-.85,6.22-2.55Z"/>
            <path class="cls-2" d="M515.13,548.69h-2.33l4.92-10.53-9.84-20.98h2.42l8.59,18.56,8.68-18.56h2.33l-14.76,31.51Z"/>
            <path class="cls-2" d="M556.59,532.03c.14,1.55.88,2.78,2.2,3.67,1.32.89,2.98,1.34,4.96,1.34,1.78,0,3.22-.38,4.32-1.14,1.09-.76,1.64-1.82,1.64-3.17,0-1.04-.34-1.84-1.03-2.4-.69-.56-1.68-.99-2.98-1.27l-5.18-1.12c-3.48-.75-5.22-2.46-5.22-5.14,0-1.81.71-3.28,2.14-4.4,1.42-1.12,3.29-1.68,5.59-1.68s4.09.53,5.52,1.58c1.44,1.05,2.36,2.42,2.76,4.12l-1.94.52c-.29-1.35-.99-2.43-2.11-3.24-1.12-.81-2.55-1.21-4.27-1.21s-3.05.38-4.06,1.14-1.51,1.78-1.51,3.04c0,1.03.33,1.81.99,2.33.66.52,1.63.92,2.89,1.21l5.09,1.12c3.59.83,5.39,2.59,5.39,5.27,0,1.93-.75,3.45-2.24,4.55-1.5,1.11-3.47,1.66-5.91,1.66s-4.58-.55-6.22-1.66c-1.64-1.11-2.61-2.64-2.89-4.6l2.07-.52Z"/>
            <path class="cls-2" d="M602.55,527.97h-19.12c.03,2.7.91,4.88,2.63,6.52,1.73,1.64,3.71,2.46,5.96,2.46,4.03,0,6.76-1.8,8.2-5.4l1.86.43c-.8,2.21-2.07,3.9-3.8,5.07-1.73,1.17-3.81,1.75-6.26,1.75-2.85,0-5.34-1.01-7.47-3.02-2.13-2.01-3.19-4.66-3.19-7.94s1.08-5.99,3.24-8.05c2.16-2.06,4.72-3.09,7.68-3.09s5.32.97,7.23,2.92c1.91,1.94,2.93,4.47,3.04,7.57v.78ZM586.52,520.72c-1.71,1.41-2.71,3.28-3,5.61h16.92c-.26-2.42-1.14-4.31-2.63-5.68-1.5-1.37-3.34-2.05-5.52-2.05s-4.05.7-5.76,2.11Z"/>
            <path class="cls-2" d="M626.54,517.18l-.22,1.98c-.29-.06-.71-.09-1.25-.09-2.79,0-4.98,1-6.58,3-1.6,2-2.4,4.48-2.4,7.45v8.81h-2.11v-21.1h2.11v5.91c.89-1.84,2.11-3.32,3.65-4.42,1.54-1.11,3.32-1.66,5.33-1.66.58,0,1.06.04,1.47.13Z"/>
            <path class="cls-2" d="M645.27,538.33h-2.33l-9.67-21.15h2.38l8.46,18.73,8.46-18.73h2.38l-9.67,21.15Z"/>
            <path class="cls-2" d="M667.79,509.62c.32.32.48.71.48,1.17s-.16.84-.48,1.14-.71.45-1.17.45c-.49,0-.89-.15-1.21-.45s-.47-.68-.47-1.14.16-.85.47-1.17c.32-.31.72-.47,1.21-.47.46,0,.85.16,1.17.47ZM665.59,538.33v-21.1h2.07v21.1h-2.07Z"/>
            <path class="cls-2" d="M695.17,535.5c1.42-.91,2.42-2.14,3-3.69l1.94.56c-.63,1.93-1.84,3.48-3.63,4.66-1.79,1.18-3.81,1.77-6.09,1.77-3.02,0-5.59-1.02-7.7-3.06-2.11-2.04-3.17-4.7-3.17-7.99s1.06-5.87,3.19-7.94c2.13-2.07,4.69-3.11,7.68-3.11,2.24,0,4.26.61,6.04,1.82,1.78,1.21,3.02,2.82,3.71,4.83l-1.99.65c-.55-1.67-1.53-2.97-2.96-3.9-1.42-.94-3.03-1.4-4.81-1.4-2.45,0-4.52.85-6.24,2.55-1.71,1.7-2.57,3.87-2.57,6.52s.85,4.94,2.55,6.6c1.7,1.67,3.78,2.5,6.26,2.5,1.76,0,3.35-.45,4.77-1.36Z"/>
            <path class="cls-2" d="M730.75,527.97h-19.12c.03,2.7.91,4.88,2.63,6.52,1.73,1.64,3.71,2.46,5.95,2.46,4.03,0,6.76-1.8,8.2-5.4l1.86.43c-.8,2.21-2.07,3.9-3.8,5.07-1.73,1.17-3.81,1.75-6.26,1.75-2.85,0-5.34-1.01-7.47-3.02-2.13-2.01-3.19-4.66-3.19-7.94s1.08-5.99,3.24-8.05c2.16-2.06,4.72-3.09,7.68-3.09s5.32.97,7.23,2.92c1.91,1.94,2.93,4.47,3.04,7.57v.78ZM714.72,520.72c-1.71,1.41-2.71,3.28-3,5.61h16.92c-.26-2.42-1.14-4.31-2.63-5.68-1.5-1.37-3.34-2.05-5.52-2.05s-4.05.7-5.76,2.11Z"/>
            <path class="cls-2" d="M742.39,532.03c.14,1.55.88,2.78,2.2,3.67,1.32.89,2.98,1.34,4.96,1.34,1.78,0,3.22-.38,4.32-1.14,1.09-.76,1.64-1.82,1.64-3.17,0-1.04-.34-1.84-1.03-2.4-.69-.56-1.68-.99-2.98-1.27l-5.18-1.12c-3.48-.75-5.22-2.46-5.22-5.14,0-1.81.71-3.28,2.14-4.4,1.42-1.12,3.29-1.68,5.59-1.68s4.09.53,5.52,1.58c1.44,1.05,2.36,2.42,2.76,4.12l-1.94.52c-.29-1.35-.99-2.43-2.11-3.24-1.12-.81-2.55-1.21-4.27-1.21s-3.05.38-4.06,1.14-1.51,1.78-1.51,3.04c0,1.03.33,1.81.99,2.33.66.52,1.63.92,2.89,1.21l5.09,1.12c3.59.83,5.39,2.59,5.39,5.27,0,1.93-.75,3.45-2.24,4.55-1.5,1.11-3.47,1.66-5.91,1.66s-4.58-.55-6.22-1.66c-1.64-1.11-2.61-2.64-2.89-4.6l2.07-.52Z"/>
          </g>
        </g>
      </g>
      <g>
        <polygon class="cls-1" points="380.18 76.73 309.14 93.89 309.14 217.04 370.81 256.88 370.81 199.81 370.81 199.81 370.81 172.31 406.87 172.31 406.87 155.81 370.9 155.81 370.9 139.65 411.34 139.65 411.34 123.04 352.88 123.04 352.88 198.65 352.87 198.65 352.87 223.93 327.08 207.28 327.08 108 380.18 95.18 433.28 108 433.28 207.28 407.49 223.93 407.49 198.65 389.55 198.65 389.55 256.88 451.21 217.04 451.21 93.89 380.18 76.73"/>
        <path class="cls-2" d="M533.23,129.47v-17.94h-45.29v-47.71l-68.79-15.19V0h-17.94v44.66l-21.04-4.65-21.04,4.65V0h-17.94v48.63l-68.79,15.19v47.71h-45.29v17.94h45.29v43.23h-45.29v17.94h45.29v43.35l68.79,45.7v56.25h17.94v-44.33l20.8,13.82.24-.16.24.16,20.8-13.82v44.33h17.94v-56.25l68.79-45.7v-43.35h45.29v-17.94h-45.29v-43.23h45.29ZM470.01,224.36l-89.65,59.57-.18-.12-.18.12-89.65-59.57V78.23l89.83-19.85,89.83,19.85v146.14Z"/>
      </g>
    </g>
  </g>
</svg>